Coordinates

Units are S.I. units (second, meters, Newtons, ...)
If the header above contains a line with 'inDegrees', this indicates whether rotational values are in degrees (yes) or radians (no).

inDegrees=no
nColumns=21
nRows=20
DataType=double
version=3
OpenSimVersion=4.6-2026-03-31-d6972f9e6
endheader
time	/jointset/ground_pelvis/pelvis_tilt/value	/jointset/ground_pelvis/pelvis_list/value	/jointset/ground_pelvis/pelvis_rotation/value	/jointset/ground_pelvis/pelvis_tx/value	/jointset/ground_pelvis/pelvis_ty/value	/jointset/ground_pelvis/pelvis_tz/value	/jointset/hip_r/hip_flexion_r/value	/jointset/hip_r/hip_adduction_r/value	/jointset/hip_r/hip_rotation_r/value	/jointset/walker_knee_r/knee_angle_r/value	/jointset/patellofemoral_r/knee_angle_r_beta/value	/jointset/ankle_r/ankle_angle_r/value	/jointset/subtalar_r/subtalar_angle_r/value	/jointset/hip_l/hip_flexion_l/value	/jointset/hip_l/hip_adduction_l/value	/jointset/hip_l/hip_rotation_l/value	/jointset/walker_knee_l/knee_angle_l/value	/jointset/patellofemoral_l/knee_angle_l_beta/value	/jointset/ankle_l/ankle_angle_l/value	/jointset/subtalar_l/subtalar_angle_l/value
143.996	0.02280416605034135	-0.1717145038188042	1.433696643593951	0.8328803100000469	1.034396830000057	-1.043261320000071	0.4813746976547241	0.06158148907276109	-0.02064877343592029	0.1235193890395467	0.1235193900000095	-0.2407626831719958	-0.04726877115585448	-0.2772268419242654	0.01129127023836599	-0.1339810529717616	0.412003844796485	0.4120038400000249	-0.3997196056085158	-0.1725028592680916
144	0.01858202725240924	-0.1670230669712161	1.430566479598344	0.8332711751212439	1.03346877233679	-1.043383176099024	0.4766489586741184	0.05884256495572028	-0.02031979320236491	0.1178607028138383	0.1178607034435283	-0.2452229323094629	-0.04249578355867272	-0.2742386727282987	0.01478132027513742	-0.136913765388735	0.4462290046033958	0.4462290002426516	-0.395157300443597	-0.1794562157649615
144.004	0.01447836717635902	-0.162290410726663	1.427468437606993	0.8336584351730236	1.032522867755397	-1.04350108926345	0.4719464375723581	0.05618209594802929	-0.0199690457166112	0.1126897580311539	0.1126897583429271	-0.2494309655251618	-0.037830305864927	-0.2712450312605217	0.01813467015006955	-0.139827557985225	0.4805122933049033	0.4805122893729328	-0.3906639345327683	-0.1864429062723499
144.008	0.01060762999835489	-0.1574765487924659	1.424432947327631	0.8340386187470227	1.031541372750173	-1.043611258089186	0.4672888728879859	0.05367641107601482	-0.01957630633213256	0.1084808528029349	0.1084808528220464	-0.2531349731399228	-0.03337847593430453	-0.2682395328126566	0.02121860705782865	-0.1427047301844644	0.5149117565063173	0.5149117529901983	-0.3863032393768542	-0.1934957698570689
144.012	0.007076457595057512	-0.1525441719921861	1.421487264740727	0.834408513324648	1.030506736203547	-1.043710138884995	0.4626954219849776	0.05139774956270086	-0.01912443244953655	0.1056818183799966	0.1056818181430796	-0.2560845187428557	-0.02924380941852315	-0.2652137455397192	0.02390802670748031	-0.1455298710931666	0.5494851629396235	0.5494851598220156	-0.3821288526003147	-0.2006461752396104
144.016	0.003980380957309554	-0.1474603855653583	1.418654337147721	0.8347652755443721	1.029401673556413	-1.043794520852831	0.4581821457340202	0.0494125579262989	-0.01860082317644249	0.1047018169072224	0.1047018164605904	-0.2580324622986536	-0.02552609379695486	-0.2621557704249955	0.02608846767928674	-0.1482906429923027	0.5842895302094805	0.5842895274702694	-0.3781801510068968	-0.2079223808458293
144.02	0.001401072788543027	-0.1421986909745163	1.415952069197648	0.8351065220802205	1.02820923953277	-1.043861555790249	0.4537621140415862	0.04778007097107315	-0.01799866325125405	0.10590034329055	0.1059003426878224	-0.2587380186944114	-0.02232037711690571	-0.2590486106896423	0.02765849534137912	-0.1509781739123335	0.6193802036004525	0.6193802012180626	-0.3744791722991568	-0.2153473366716001
144.024	-0.0005958005165369448	-0.1367410861287615	1.413392992286892	0.8354303981578582	1.026912918850457	-1.043908745634529	0.4494460553216704	0.04655115173496208	-0.01731779977679784	0.1095777866798397	0.1095777859790072	-0.257970935911277	-0.01971600304926982	-0.2558684576436217	0.02853146427954627	-0.1535870101243376	0.6548094124890044	0.6548094104412534	-0.3710288237393879	-0.2229361576729022
144.028	-0.001962121934489659	-0.1310801131042068	1.41098430440948	0.8357356215558269	1.025496755650871	-1.043933895897823	0.445243397179891	0.04576734947792838	-0.01656511345043083	0.1159678571150242	0.1159678563751357	-0.255516616490652	-0.01779564769122033	-0.2525830395456244	0.02863673236634304	-0.1561146337724843	0.6906243298089493	0.6906243280735593	-0.3678124039566528	-0.2306935409068703
144.032	-0.002668264647363977	-0.1252206709713979	1.408728224529756	0.8360215005579921	1.023945540094326	-1.043935045112594	0.4411635110391215	0.04546014509135242	-0.01575429346423488	0.1252321207288952	0.1252321200066927	-0.2511818929421957	-0.01663429593816021	-0.2491501737924282	0.02792040822233067	-0.1585605919938834	0.7268647434646657	0.726864742019549	-0.3647943608230374	-0.2386114220870212
144.036	-0.002703432972581154	-0.1191814257585016	1.406622596511631	0.8362879253783287	1.02224506456903	-1.043910380946386	0.4372169712456619	0.04565037399992574	-0.0149049954745936	0.1374568122900235	0.137456811637011	-0.2448010886296393	-0.016298096869268	-0.2455166407118688	0.02634569969714582	-0.1609253155285804	0.7635605101706475	0.7635605089939262	-0.3619221370158038	-0.2466671505144749
144.04	-0.00207541618196238	-0.1129956752411712	1.40466167638773	0.8365353336887718	1.020382453212202	-1.04385815369193	0.4334166548808915	0.04634782644255188	-0.01404143460687292	0.1526520115011665	0.1526520109614935	-0.2362419348835508	-0.01684306060785988	-0.2416174778627142	0.0238929200134769	-0.1632087312325851	0.8007289897674594	0.8007289888370936	-0.359128898703442	-0.2548224038088672
144.044	-0.0008098023541827929	-0.1067116029535666	1.40283704224847	0.836764650894478	1.018346554898526	-1.043776595455814	0.4297786108154303	0.04755101094005548	-0.01319055509036388	0.1707532272504231	0.1707532268595754	-0.2254108944693756	-0.01831356009423689	-0.237375712272108	0.02055920801190025	-0.1654087862270835	0.8383726856481966	0.8383726849411851	-0.3563368947675518	-0.263022966993342
144.048	0.001051246626983836	-0.1003919752592632	1.401138578767538	0.8369772047508858	1.016128373974435	-1.043663849131702	0.4263227941366921	0.04924703018793245	-0.0123800075907225	0.1916254145426382	0.1916254143266747	-0.2122574758962278	-0.02074056939151086	-0.2327024105672609	0.01635803136671079	-0.1675199881279535	0.8764773476994364	0.8764773471907306	-0.3534611529263587	-0.2711993760790433
144.052	0.003450539212489397	-0.09411335448046924	1.399555496827531	0.8371746144081986	1.013721508624587	-1.04351791129098	0.4230737531835736	0.05141150992098197	-0.01163616527595907	0.2150693180820342	0.2150693180571746	-0.1967772087376749	-0.02413958924595911	-0.2274969423783007	0.01131855065435296	-0.169532039834189	0.9150107346431089	0.9150107343045173	-0.3504132365789767	-0.2792683464602287
144.056	0.006317666505249171	-0.08796476401097537	1.398077342080411	0.8373586584419415	1.011122578644305	-1.043336598546183	0.4200610862849168	0.05400859840349436	-0.01098230276924979	0.2408297733418713	0.2408297735144199	-0.1790130789564765	-0.02850835875634106	-0.2216476008540798	0.005484882309508449	-0.1714286539235224	0.9539220637388928	0.9539220635383131	-0.3471048867872061	-0.2871349176312886
144.06	0.009571120564826979	-0.08204563040261538	1.396694935293663	0.8375311321060001	1.008331635176476	-1.043117549760845	0.4173192658132183	0.05699115734905486	-0.01043697074132885	0.2686053890124691	0.2686053893791959	-0.1590553588727531	-0.03382463142630478	-0.215032928802291	-0.001084775429122327	-0.1731866688103559	0.9931420386287154	0.9931420385299795	-0.343451474308961	-0.2946952745833599
144.064	0.01312075875470113	-0.0764628874944734	1.395401189838023	0.8376937057309392	1.005352541667762	-1.042858272424965	0.4148864977917027	0.06030127993651441	-0.01001260345837364	0.2980590016104973	0.2980590021596543	-0.1370398688656516	-0.04004434599650598	-0.2075240387397493	-0.008319217521681235	-0.1747755936429221	1.032583329968948	1.032583329932396	-0.3393752090161367	-0.3018401703995788
144.068	0.01687058562278768	-0.07132727261318393	1.394191767074931	0.8378477937802487	1.002193306484011	-1.042556235080162	0.4128025017163751	0.06387120447522281	-0.009714440681717848	0.3288283497303058	0.3288283504433473	-0.1131447806822516	-0.04710045647468103	-0.1989880178097695	-0.01613553963309796	-0.1761576629995385	1.072141420309272	1.072141420292965	-0.3348080305454324	-0.3084588050556084
144.072	0.0207217651306309	-0.06674895678796471	1.393065548382123	0.8379944414521785	0.9988663439462402	-1.042209002808394	0.4111052648099497	0.06762462791300057	-0.009539859341852898	0.3605364718130211	0.3605364726668117	-0.08758614009216104	-0.05490260486200462	-0.1892923521443757	-0.02444067397429451	-0.1772884266474812	1.111695743127271	1.111695743088663	-0.3296940947667714	-0.3144429748509175
